<mxfile host="app.diagrams.net" agent="Mozilla/5.0 (Macintosh; Intel Mac OS X 10_15_7) AppleWebKit/537.36 (KHTML, like Gecko) Chrome/134.0.0.0 Safari/537.36" version="26.1.0">
  <diagram name="Page-1" id="vOtwhBu7A5QNr4yNKkLE">
    <mxGraphModel dx="954" dy="639" grid="1" gridSize="10" guides="1" tooltips="1" connect="1" arrows="1" fold="1" page="1" pageScale="1" pageWidth="850" pageHeight="1100" math="0" shadow="0">
      <root>
        <mxCell id="0" />
        <mxCell id="1" parent="0" />
        <mxCell id="QvlMeQB52s9vAWDjQTkU-15" value="&amp;lt;&amp;lt;entity&amp;gt;&amp;gt;&lt;br&gt;Booking" style="swimlane;fontStyle=0;childLayout=stackLayout;horizontal=1;startSize=26;fillColor=none;horizontalStack=0;resizeParent=1;resizeParentMax=0;resizeLast=0;collapsible=1;marginBottom=0;whiteSpace=wrap;html=1;" parent="1" vertex="1">
          <mxGeometry x="9" y="512" width="150" height="91" as="geometry" />
        </mxCell>
        <mxCell id="QvlMeQB52s9vAWDjQTkU-16" value="-bookingId : Integer&lt;div&gt;-bookingDate : Local Date&lt;/div&gt;&lt;div&gt;-bookingStatus : Enum&lt;/div&gt;" style="text;strokeColor=none;fillColor=none;align=left;verticalAlign=top;spacingLeft=4;spacingRight=4;overflow=hidden;rotatable=0;points=[[0,0.5],[1,0.5]];portConstraint=eastwest;whiteSpace=wrap;html=1;" parent="QvlMeQB52s9vAWDjQTkU-15" vertex="1">
          <mxGeometry y="26" width="150" height="65" as="geometry" />
        </mxCell>
        <mxCell id="QvlMeQB52s9vAWDjQTkU-17" value="&amp;lt;&amp;lt;value object&amp;gt;&amp;gt;&lt;br&gt;Lease" style="swimlane;fontStyle=0;childLayout=stackLayout;horizontal=1;startSize=26;fillColor=none;horizontalStack=0;resizeParent=1;resizeParentMax=0;resizeLast=0;collapsible=1;marginBottom=0;whiteSpace=wrap;html=1;" parent="1" vertex="1">
          <mxGeometry x="490" y="512" width="220" height="121" as="geometry" />
        </mxCell>
        <mxCell id="QvlMeQB52s9vAWDjQTkU-18" value="-leaseId : Integer&lt;div&gt;-tenantSignDate : Local Date&lt;/div&gt;&lt;div&gt;-propertyOwnerSignDate : Local Date&lt;br&gt;&lt;div&gt;-expiryDate : Local Date&lt;/div&gt;&lt;div&gt;-urlForDocument : String&lt;/div&gt;&lt;div&gt;&lt;br&gt;&lt;/div&gt;&lt;/div&gt;" style="text;strokeColor=none;fillColor=none;align=left;verticalAlign=top;spacingLeft=4;spacingRight=4;overflow=hidden;rotatable=0;points=[[0,0.5],[1,0.5]];portConstraint=eastwest;whiteSpace=wrap;html=1;" parent="QvlMeQB52s9vAWDjQTkU-17" vertex="1">
          <mxGeometry y="26" width="220" height="95" as="geometry" />
        </mxCell>
        <mxCell id="QvlMeQB52s9vAWDjQTkU-19" value="&amp;lt;&amp;lt;entity&amp;gt;&amp;gt;&lt;br&gt;Property" style="swimlane;fontStyle=0;childLayout=stackLayout;horizontal=1;startSize=26;fillColor=none;horizontalStack=0;resizeParent=1;resizeParentMax=0;resizeLast=0;collapsible=1;marginBottom=0;whiteSpace=wrap;html=1;" parent="1" vertex="1">
          <mxGeometry x="260" y="512" width="150" height="121" as="geometry" />
        </mxCell>
        <mxCell id="QvlMeQB52s9vAWDjQTkU-20" value="-propertyId : Integer&lt;div&gt;&lt;span style=&quot;background-color: transparent; color: light-dark(rgb(0, 0, 0), rgb(255, 255, 255));&quot;&gt;-propertyType : String&lt;/span&gt;&lt;/div&gt;&lt;div&gt;-ammenities : List&amp;lt;String&amp;gt;&lt;/div&gt;&lt;div&gt;&lt;div&gt;-availability : Enum&lt;/div&gt;&lt;div&gt;-price : Double&amp;nbsp;&lt;/div&gt;&lt;div&gt;&lt;br&gt;&lt;/div&gt;&lt;/div&gt;" style="text;strokeColor=none;fillColor=none;align=left;verticalAlign=top;spacingLeft=4;spacingRight=4;overflow=hidden;rotatable=0;points=[[0,0.5],[1,0.5]];portConstraint=eastwest;whiteSpace=wrap;html=1;" parent="QvlMeQB52s9vAWDjQTkU-19" vertex="1">
          <mxGeometry y="26" width="150" height="95" as="geometry" />
        </mxCell>
        <mxCell id="QvlMeQB52s9vAWDjQTkU-29" value="&lt;div&gt;&amp;lt;&amp;lt;value object&amp;gt;&amp;gt;&lt;/div&gt;Address" style="swimlane;fontStyle=0;childLayout=stackLayout;horizontal=1;startSize=26;fillColor=none;horizontalStack=0;resizeParent=1;resizeParentMax=0;resizeLast=0;collapsible=1;marginBottom=0;whiteSpace=wrap;html=1;" parent="1" vertex="1">
          <mxGeometry x="680" y="392" width="140" height="91" as="geometry" />
        </mxCell>
        <mxCell id="QvlMeQB52s9vAWDjQTkU-30" value="&lt;div&gt;-zip : String&lt;/div&gt;&lt;div&gt;-street : Srring&lt;/div&gt;&lt;div&gt;-state : String&lt;/div&gt;" style="text;strokeColor=none;fillColor=none;align=left;verticalAlign=top;spacingLeft=4;spacingRight=4;overflow=hidden;rotatable=0;points=[[0,0.5],[1,0.5]];portConstraint=eastwest;whiteSpace=wrap;html=1;" parent="QvlMeQB52s9vAWDjQTkU-29" vertex="1">
          <mxGeometry y="26" width="140" height="65" as="geometry" />
        </mxCell>
        <mxCell id="QvlMeQB52s9vAWDjQTkU-34" value="" style="endArrow=none;html=1;rounded=0;exitX=0.5;exitY=0;exitDx=0;exitDy=0;entryX=0.435;entryY=1.024;entryDx=0;entryDy=0;entryPerimeter=0;" parent="1" source="QvlMeQB52s9vAWDjQTkU-19" target="QUGp7r5j1x6lwB8Zi_k4-7" edge="1">
          <mxGeometry width="50" height="50" relative="1" as="geometry">
            <mxPoint x="370" y="482" as="sourcePoint" />
            <mxPoint x="330" y="360" as="targetPoint" />
          </mxGeometry>
        </mxCell>
        <mxCell id="QvlMeQB52s9vAWDjQTkU-35" style="edgeStyle=orthogonalEdgeStyle;rounded=0;orthogonalLoop=1;jettySize=auto;html=1;exitX=1;exitY=0.5;exitDx=0;exitDy=0;entryX=0.001;entryY=0.335;entryDx=0;entryDy=0;entryPerimeter=0;" parent="1" source="QvlMeQB52s9vAWDjQTkU-16" target="QvlMeQB52s9vAWDjQTkU-20" edge="1">
          <mxGeometry relative="1" as="geometry">
            <mxPoint x="220" y="459" as="targetPoint" />
          </mxGeometry>
        </mxCell>
        <mxCell id="QvlMeQB52s9vAWDjQTkU-36" value="" style="endArrow=none;html=1;rounded=0;exitX=0.75;exitY=0;exitDx=0;exitDy=0;" parent="1" source="QvlMeQB52s9vAWDjQTkU-15" edge="1">
          <mxGeometry width="50" height="50" relative="1" as="geometry">
            <mxPoint x="250" y="512" as="sourcePoint" />
            <mxPoint x="320" y="364" as="targetPoint" />
          </mxGeometry>
        </mxCell>
        <mxCell id="QvlMeQB52s9vAWDjQTkU-46" value="" style="endArrow=none;html=1;rounded=0;exitX=1;exitY=0.923;exitDx=0;exitDy=0;entryX=0.345;entryY=1;entryDx=0;entryDy=0;exitPerimeter=0;entryPerimeter=0;" parent="1" source="QUGp7r5j1x6lwB8Zi_k4-5" target="QvlMeQB52s9vAWDjQTkU-72" edge="1">
          <mxGeometry width="50" height="50" relative="1" as="geometry">
            <mxPoint x="410" y="305" as="sourcePoint" />
            <mxPoint x="740" y="202" as="targetPoint" />
            <Array as="points">
              <mxPoint x="760" y="301" />
            </Array>
          </mxGeometry>
        </mxCell>
        <mxCell id="QvlMeQB52s9vAWDjQTkU-47" value="" style="endArrow=none;html=1;rounded=0;entryX=0.5;entryY=0;entryDx=0;entryDy=0;exitX=0.606;exitY=0.99;exitDx=0;exitDy=0;exitPerimeter=0;" parent="1" source="QUGp7r5j1x6lwB8Zi_k4-7" target="QvlMeQB52s9vAWDjQTkU-17" edge="1">
          <mxGeometry width="50" height="50" relative="1" as="geometry">
            <mxPoint x="372.5" y="368" as="sourcePoint" />
            <mxPoint x="410" y="402" as="targetPoint" />
          </mxGeometry>
        </mxCell>
        <mxCell id="QvlMeQB52s9vAWDjQTkU-57" value="approves" style="text;html=1;align=center;verticalAlign=middle;whiteSpace=wrap;rounded=0;" parent="1" vertex="1">
          <mxGeometry x="140" y="421.25" width="60" height="30" as="geometry" />
        </mxCell>
        <mxCell id="QvlMeQB52s9vAWDjQTkU-59" value="1" style="text;html=1;align=center;verticalAlign=middle;whiteSpace=wrap;rounded=0;" parent="1" vertex="1">
          <mxGeometry x="400" y="581" width="29" height="22" as="geometry" />
        </mxCell>
        <mxCell id="QvlMeQB52s9vAWDjQTkU-61" value="signs" style="text;html=1;align=center;verticalAlign=middle;whiteSpace=wrap;rounded=0;" parent="1" vertex="1">
          <mxGeometry x="480" y="428.75" width="47" height="15" as="geometry" />
        </mxCell>
        <mxCell id="QvlMeQB52s9vAWDjQTkU-63" value="1" style="text;html=1;align=center;verticalAlign=middle;whiteSpace=wrap;rounded=0;" parent="1" vertex="1">
          <mxGeometry x="381" y="365.5" width="29" height="23" as="geometry" />
        </mxCell>
        <mxCell id="QvlMeQB52s9vAWDjQTkU-65" value="0...*" style="text;html=1;align=center;verticalAlign=middle;whiteSpace=wrap;rounded=0;" parent="1" vertex="1">
          <mxGeometry x="85" y="490" width="29" height="22" as="geometry" />
        </mxCell>
        <mxCell id="QvlMeQB52s9vAWDjQTkU-66" value="0...*" style="text;html=1;align=center;verticalAlign=middle;whiteSpace=wrap;rounded=0;" parent="1" vertex="1">
          <mxGeometry x="570" y="490" width="29" height="22" as="geometry" />
        </mxCell>
        <mxCell id="QvlMeQB52s9vAWDjQTkU-70" value="has an" style="text;html=1;align=center;verticalAlign=middle;whiteSpace=wrap;rounded=0;" parent="1" vertex="1">
          <mxGeometry x="603" y="280" width="47" height="15" as="geometry" />
        </mxCell>
        <mxCell id="QvlMeQB52s9vAWDjQTkU-71" value="1" style="text;html=1;align=center;verticalAlign=middle;whiteSpace=wrap;rounded=0;" parent="1" vertex="1">
          <mxGeometry x="432" y="262.5" width="29" height="22" as="geometry" />
        </mxCell>
        <mxCell id="QvlMeQB52s9vAWDjQTkU-72" value="1" style="text;html=1;align=center;verticalAlign=middle;whiteSpace=wrap;rounded=0;" parent="1" vertex="1">
          <mxGeometry x="750" y="370" width="29" height="22" as="geometry" />
        </mxCell>
        <mxCell id="QvlMeQB52s9vAWDjQTkU-74" value="1" style="text;html=1;align=center;verticalAlign=middle;whiteSpace=wrap;rounded=0;" parent="1" vertex="1">
          <mxGeometry x="461" y="581" width="29" height="22" as="geometry" />
        </mxCell>
        <mxCell id="QvlMeQB52s9vAWDjQTkU-75" value="1" style="text;html=1;align=center;verticalAlign=middle;whiteSpace=wrap;rounded=0;" parent="1" vertex="1">
          <mxGeometry x="270" y="360" width="29" height="22" as="geometry" />
        </mxCell>
        <mxCell id="QvlMeQB52s9vAWDjQTkU-76" value="1" style="text;html=1;align=center;verticalAlign=middle;whiteSpace=wrap;rounded=0;" parent="1" vertex="1">
          <mxGeometry x="231" y="566.75" width="29" height="22" as="geometry" />
        </mxCell>
        <mxCell id="QvlMeQB52s9vAWDjQTkU-77" value="has a" style="text;html=1;align=center;verticalAlign=middle;whiteSpace=wrap;rounded=0;" parent="1" vertex="1">
          <mxGeometry x="171" y="548.25" width="60" height="18.5" as="geometry" />
        </mxCell>
        <mxCell id="QvlMeQB52s9vAWDjQTkU-78" value="has a" style="text;html=1;align=center;verticalAlign=middle;whiteSpace=wrap;rounded=0;" parent="1" vertex="1">
          <mxGeometry x="410" y="560" width="60" height="17.5" as="geometry" />
        </mxCell>
        <mxCell id="QUGp7r5j1x6lwB8Zi_k4-4" value="&lt;span style=&quot;font-weight: 400;&quot;&gt;&amp;lt;&amp;lt;entity&amp;gt;&amp;gt;&lt;/span&gt;&lt;br style=&quot;font-weight: 400;&quot;&gt;PropertyOwner" style="swimlane;fontStyle=1;align=center;verticalAlign=top;childLayout=stackLayout;horizontal=1;startSize=42;horizontalStack=0;resizeParent=1;resizeParentMax=0;resizeLast=0;collapsible=1;marginBottom=0;whiteSpace=wrap;html=1;" vertex="1" parent="1">
          <mxGeometry x="260" y="150" width="170" height="210" as="geometry" />
        </mxCell>
        <mxCell id="QUGp7r5j1x6lwB8Zi_k4-5" value="- propertyownerId: Integer&lt;div&gt;- fname: String&lt;/div&gt;&lt;div&gt;- lname: String&lt;/div&gt;&lt;div&gt;-userName: String&lt;/div&gt;&lt;div&gt;- password:String&lt;/div&gt;&lt;div&gt;&lt;br&gt;&lt;/div&gt;" style="text;strokeColor=none;fillColor=none;align=left;verticalAlign=top;spacingLeft=4;spacingRight=4;overflow=hidden;rotatable=0;points=[[0,0.5],[1,0.5]];portConstraint=eastwest;whiteSpace=wrap;html=1;" vertex="1" parent="QUGp7r5j1x6lwB8Zi_k4-4">
          <mxGeometry y="42" width="170" height="76" as="geometry" />
        </mxCell>
        <mxCell id="QUGp7r5j1x6lwB8Zi_k4-6" value="" style="line;strokeWidth=1;fillColor=none;align=left;verticalAlign=middle;spacingTop=-1;spacingLeft=3;spacingRight=3;rotatable=0;labelPosition=right;points=[];portConstraint=eastwest;strokeColor=inherit;" vertex="1" parent="QUGp7r5j1x6lwB8Zi_k4-4">
          <mxGeometry y="118" width="170" height="8" as="geometry" />
        </mxCell>
        <mxCell id="QUGp7r5j1x6lwB8Zi_k4-7" value="+ signLease():void&lt;div&gt;+ addProperty():void&lt;br&gt;+ approveBooking():void&lt;br&gt;+ updateProperty():void&lt;/div&gt;&lt;div&gt;+ deleteProperty():void&lt;/div&gt;" style="text;strokeColor=none;fillColor=none;align=left;verticalAlign=top;spacingLeft=4;spacingRight=4;overflow=hidden;rotatable=0;points=[[0,0.5],[1,0.5]];portConstraint=eastwest;whiteSpace=wrap;html=1;" vertex="1" parent="QUGp7r5j1x6lwB8Zi_k4-4">
          <mxGeometry y="126" width="170" height="84" as="geometry" />
        </mxCell>
        <mxCell id="QUGp7r5j1x6lwB8Zi_k4-10" value="PropertyOwner Service&amp;nbsp;" style="swimlane;fontStyle=1;align=center;verticalAlign=top;childLayout=stackLayout;horizontal=1;startSize=26;horizontalStack=0;resizeParent=1;resizeParentMax=0;resizeLast=0;collapsible=1;marginBottom=0;whiteSpace=wrap;html=1;" vertex="1" parent="1">
          <mxGeometry x="14.5" y="40" width="225.5" height="150" as="geometry" />
        </mxCell>
        <mxCell id="QUGp7r5j1x6lwB8Zi_k4-12" value="" style="line;strokeWidth=1;fillColor=none;align=left;verticalAlign=middle;spacingTop=-1;spacingLeft=3;spacingRight=3;rotatable=0;labelPosition=right;points=[];portConstraint=eastwest;strokeColor=inherit;" vertex="1" parent="QUGp7r5j1x6lwB8Zi_k4-10">
          <mxGeometry y="26" width="225.5" height="8" as="geometry" />
        </mxCell>
        <mxCell id="QUGp7r5j1x6lwB8Zi_k4-13" value="+ signLease():Lease&lt;div&gt;+ addProperty():Property&lt;br&gt;+ approveBooking():Booking&lt;br&gt;+&amp;nbsp;&lt;span style=&quot;background-color: transparent; color: light-dark(rgb(0, 0, 0), rgb(255, 255, 255));&quot;&gt;updateProperty():Property&lt;br&gt;+ deleteProperty():void&lt;br&gt;+ getAllProperties():List&amp;lt;Property&amp;gt;&lt;br&gt;+ getPropertyById():Optional&amp;lt;Property&amp;gt;&lt;/span&gt;&lt;/div&gt;" style="text;strokeColor=none;fillColor=none;align=left;verticalAlign=top;spacingLeft=4;spacingRight=4;overflow=hidden;rotatable=0;points=[[0,0.5],[1,0.5]];portConstraint=eastwest;whiteSpace=wrap;html=1;" vertex="1" parent="QUGp7r5j1x6lwB8Zi_k4-10">
          <mxGeometry y="34" width="225.5" height="116" as="geometry" />
        </mxCell>
        <mxCell id="QUGp7r5j1x6lwB8Zi_k4-23" value="&lt;p style=&quot;margin:0px;margin-top:4px;text-align:center;&quot;&gt;&lt;i&gt;&amp;lt;&amp;lt;Interface&amp;gt;&amp;gt;&lt;/i&gt;&lt;br&gt;&lt;b&gt;PropertyOwner Repository&lt;/b&gt;&lt;/p&gt;&lt;p style=&quot;margin:0px;margin-left:4px;&quot;&gt;&lt;br&gt;&lt;/p&gt;&lt;hr size=&quot;1&quot; style=&quot;border-style:solid;&quot;&gt;&lt;p style=&quot;margin:0px;margin-left:4px;&quot;&gt;+ findBookingById():Booking&lt;br&gt;+ updatePropertyInfo():Property&lt;/p&gt;&lt;p style=&quot;margin:0px;margin-left:4px;&quot;&gt;+ deletePropertyById():void&lt;/p&gt;&lt;p style=&quot;margin:0px;margin-left:4px;&quot;&gt;+ findPropertyById():Property&lt;br&gt;+ saveProperty():Property&lt;/p&gt;" style="verticalAlign=top;align=left;overflow=fill;html=1;whiteSpace=wrap;" vertex="1" parent="1">
          <mxGeometry x="589" y="20" width="190" height="140" as="geometry" />
        </mxCell>
        <mxCell id="QUGp7r5j1x6lwB8Zi_k4-25" value="" style="endArrow=none;html=1;rounded=0;entryX=-0.006;entryY=0.442;entryDx=0;entryDy=0;entryPerimeter=0;" edge="1" parent="1" target="QvlMeQB52s9vAWDjQTkU-18">
          <mxGeometry width="50" height="50" relative="1" as="geometry">
            <mxPoint x="410" y="580" as="sourcePoint" />
            <mxPoint x="450" y="532.5" as="targetPoint" />
          </mxGeometry>
        </mxCell>
        <mxCell id="QUGp7r5j1x6lwB8Zi_k4-27" value="has" style="text;html=1;align=center;verticalAlign=middle;whiteSpace=wrap;rounded=0;" vertex="1" parent="1">
          <mxGeometry x="284" y="428" width="47" height="15" as="geometry" />
        </mxCell>
        <mxCell id="QUGp7r5j1x6lwB8Zi_k4-28" value="1" style="text;html=1;align=center;verticalAlign=middle;whiteSpace=wrap;rounded=0;" vertex="1" parent="1">
          <mxGeometry x="331" y="360" width="29" height="22" as="geometry" />
        </mxCell>
        <mxCell id="QUGp7r5j1x6lwB8Zi_k4-29" value="0...*" style="text;html=1;align=center;verticalAlign=middle;whiteSpace=wrap;rounded=0;" vertex="1" parent="1">
          <mxGeometry x="340" y="490" width="29" height="22" as="geometry" />
        </mxCell>
        <mxCell id="QUGp7r5j1x6lwB8Zi_k4-31" value="" style="endArrow=none;dashed=1;html=1;dashPattern=1 3;strokeWidth=2;rounded=0;exitX=0;exitY=0.651;exitDx=0;exitDy=0;exitPerimeter=0;entryX=0.494;entryY=1.026;entryDx=0;entryDy=0;entryPerimeter=0;" edge="1" parent="1" source="QUGp7r5j1x6lwB8Zi_k4-5" target="QUGp7r5j1x6lwB8Zi_k4-13">
          <mxGeometry width="50" height="50" relative="1" as="geometry">
            <mxPoint x="130" y="200" as="sourcePoint" />
            <mxPoint x="180" y="150" as="targetPoint" />
          </mxGeometry>
        </mxCell>
        <mxCell id="QUGp7r5j1x6lwB8Zi_k4-33" value="" style="endArrow=none;dashed=1;html=1;dashPattern=1 3;strokeWidth=2;rounded=0;exitX=0;exitY=0.436;exitDx=0;exitDy=0;exitPerimeter=0;entryX=1.004;entryY=0.06;entryDx=0;entryDy=0;entryPerimeter=0;" edge="1" parent="1" source="QUGp7r5j1x6lwB8Zi_k4-23" target="QUGp7r5j1x6lwB8Zi_k4-13">
          <mxGeometry width="50" height="50" relative="1" as="geometry">
            <mxPoint x="284" y="247" as="sourcePoint" />
            <mxPoint x="190" y="80" as="targetPoint" />
          </mxGeometry>
        </mxCell>
      </root>
    </mxGraphModel>
  </diagram>
</mxfile>
